{"title":"Unfinished.Business.2015.720p.BluRay.H264.AAC-RARBG","uid":11972846,"size":1193698687,"categoryP":"video","categoryS":"hd___movies","magnet":"?xt=urn:btih:87b3d8aef9ab43535591818bd9f04420a8aff4c3&amp;dn=Unfinished.Business.2015.720p.BluRay.H264.AAC-RARBG&amp;tr=udp%3A%2F%2Ftracker.openbittorrent.com%3A80&amp;tr=udp%3A%2F%2Fopen.demonii.com%3A1337&amp;tr=udp%3A%2F%2Ftracker.coppersurfer.tk%3A6969&amp;tr=udp%3A%2F%2Fexodus.desync.com%3A6969","seeders":0,"leechers":1,"uploader":"vickey1992","files":6,"time":1432899800,"description":"Video\nID                                       : 1\nFormat                                   : AVC\nFormat/Info                              : Advanced Video Codec\nFormat profile                           : &lt;a class=&quot;__cf_email__&quot; href=&quot;/cdn-cgi/l/email-protection&quot; data-cfemail=&quot;064e6f616e464a322837&quot;&gt;[email&amp;#160;protected]&lt;/a&gt;&lt;script data-cfhash='f9e31' type=&quot;text/javascript&quot;&gt;\n/* &lt;![CDATA[ */!function(){try{var t=&quot;currentScript&quot;in document?document.currentScript:function(){for(var t=document.getElementsByTagName(&quot;script&quot;),e=t.length;e--;)if(t[e].getAttribute(&quot;data-cfhash&quot;))return t[e]}();if(t&amp;&amp;t.previousSibling){var e,r,n,i,c=t.previousSibling,a=c.getAttribute(&quot;data-cfemail&quot;);if(a){for(e=&quot;&quot;,r=parseInt(a.substr(0,2),16),n=2;a.length-n;n+=2)i=parseInt(a.substr(n,2),16)^r,e+=String.fromCharCode(i);e=document.createTextNode(e),c.parentNode.replaceChild(e,c)}t.parentNode.removeChild(t);}}catch(u){}}()/* ]]&gt; */&lt;/script&gt;\nFormat settings, CABAC                   : Yes\nFormat settings, ReFrames                : 4 frames\nCodec ID                                 : avc1\nCodec ID/Info                            : Advanced Video Coding\nDuration                                 : 1h 30mn\nBit rate                                 : 1 500 Kbps\nWidth                                    : 1 280 pixels\nHeight                                   : 528 pixels\nDisplay aspect ratio                     : 2.40:1\nFrame rate mode                          : Constant\nFrame rate                               : 23.976 fps\nColor space                              : YUV\nChroma subsampling                       : 4:2:0\nBit depth                                : 8 bits\nScan type                                : Progressive\nBits/(Pixel*Frame)                       : 0.093\nStream size                              : 976 MiB (87%)\nWriting library                          : x264 core 144 r2525M 40bb568\nEncoding settings                        : cabac=1 / ref=4 / deblock=1:-1:-1 / analyse=0x3:0x113 / me=umh / subme=9 / psy=1 / psy_rd=1.00:0.15 / mixed_ref=1 / me_range=24 / chroma_me=1 / trellis=2 / 8x8dct=1 / cqm=0 / deadzone=21,11 / fast_pskip=1 / chroma_qp_offset=-3 / threads=32 / lookahead_threads=4 / sliced_threads=0 / nr=0 / decimate=1 / interlaced=0 / bluray_compat=0 / constrained_intra=0 / bframes=3 / b_pyramid=2 / b_adapt=1 / b_bias=0 / direct=1 / weightb=1 / open_gop=0 / weightp=2 / keyint=250 / keyint_min=25 / scenecut=40 / intra_refresh=0 / rc_lookahead=50 / rc=2pass / mbtree=1 / bitrate=1500 / ratetol=1.0 / qcomp=0.60 / qpmin=0 / qpmax=69 / qpstep=4 / cplxblur=20.0 / qblur=0.5 / vbv_maxrate=31250 / vbv_bufsize=31250 / nal_hrd=none / filler=0 / ip_ratio=1.40 / aq=3:1.00\nEncoded date                             : UTC 1904-01-01 00:00:00\nTagged date                              : UTC 1904-01-01 00:00:00\n\nAudio\nID                                       : 2\nFormat                                   : AAC\nFormat/Info                              : Advanced Audio Codec\nFormat profile                           : LC\nCodec ID                                 : 40\nDuration                                 : 1h 30mn\nBit rate mode                            : Constant\nBit rate                                 : 224 Kbps\nChannel(s)                               : 2 channels\nChannel(s)_Original                      : 6 channels\nChannel positions                        : Front: L C R, Side: L R, LFE\nSampling rate                            : 48.0 KHz\nCompression mode                         : Lossy\nStream size                              : 146 MiB (13%)\nLanguage                                 : English\nEncoded date                             : UTC 1904-01-01 00:00:00\nTagged date                              : UTC 1904-01-01 00:00:00\n\nMenu #1\nID                                       : 3\nCodec ID                                 : text\nDuration                                 : 1h 30mn\nLanguage                                 : English\nEncoded date                             : UTC 1904-01-01 00:00:00\nTagged date                              : UTC 1904-01-01 00:00:00\nBit rate mode                            : CBR\n00:00:00.000                             : 00:00:00.000\n00:03:12.986                             : 00:03:12.943\n00:06:55.667                             : 00:06:55.624\n00:10:31.340                             : 00:10:31.297\n00:14:11.769                             : 00:14:11.726\n00:19:55.028                             : 00:19:54.985\n00:22:55.584                             : 00:22:55.541\n00:27:27.772                             : 00:27:27.729\n00:31:29.681                             : 00:31:29.638\n00:34:04.252                             : 00:34:04.209\n00:37:12.231                             : 00:37:12.188\n00:41:03.671                             : 00:41:03.628\n00:44:28.334                             : 00:44:28.291\n00:47:20.339                             : 00:47:20.296\n00:50:48.755                             : 00:50:48.712\n00:55:08.139                             : 00:55:08.096\n00:58:40.935                             : 00:58:40.892\n01:02:33.001                             : 01:02:32.958\n01:05:49.030                             : 01:05:48.987\n01:08:02.121                             : 01:08:02.078\n01:11:47.054                             : 01:11:47.011\n01:15:24.897                             : 01:15:24.854\n01:20:47.302                             : 01:20:47.259\n01:24:25.103                             : 01:24:25.060\n\nMenu #2\n00:00:00.043                             : 00:00:00.000\n00:03:12.986                             : 00:03:12.943\n00:06:55.667                             : 00:06:55.624\n00:10:31.340                             : 00:10:31.297\n00:14:11.769                             : 00:14:11.726\n00:19:55.028                             : 00:19:54.985\n00:22:55.584                             : 00:22:55.541\n00:27:27.772                             : 00:27:27.729\n00:31:29.681                             : 00:31:29.638\n00:34:04.252                             : 00:34:04.209\n00:37:12.231                             : 00:37:12.188\n00:41:03.671                             : 00:41:03.628\n00:44:28.334                             : 00:44:28.291\n00:47:20.339                             : 00:47:20.296\n00:50:48.755                             : 00:50:48.712\n00:55:08.139                             : 00:55:08.096\n00:58:40.935                             : 00:58:40.892\n01:02:33.001                             : 01:02:32.958\n01:05:49.030                             : 01:05:48.987\n01:08:02.121                             : 01:08:02.078\n01:11:47.054                             : 01:11:47.011\n01:15:24.897                             : 01:15:24.854\n01:20:47.302                             : 01:20:47.259\n01:24:25.103                             : 01:24:25.060","torrent":{"xt":"urn:btih:87b3d8aef9ab43535591818bd9f04420a8aff4c3","amp;dn":"Unfinished.Business.2015.720p.BluRay.H264.AAC-RARBG","amp;tr":["udp%3A%2F%2Ftracker.openbittorrent.com%3A80","udp%3A%2F%2Fopen.demonii.com%3A1337","udp%3A%2F%2Ftracker.coppersurfer.tk%3A6969","udp%3A%2F%2Fexodus.desync.com%3A6969"],"infoHash":"87b3d8aef9ab43535591818bd9f04420a8aff4c3","infoHashBuffer":{"type":"Buffer","data":[135,179,216,174,249,171,67,83,85,145,129,139,217,240,68,32,168,175,244,195]},"announce":[],"urlList":[]}}